<mxfile host="app.diagrams.net" modified="2021-05-04T22:26:38.399Z" agent="5.0 (Windows NT 10.0; Win64; x64) AppleWebKit/537.36 (KHTML, like Gecko) Chrome/90.0.4430.93 Safari/537.36" etag="z5RxyppAEIFS8Z-pkasT" version="14.5.7" type="github">
  <diagram id="dREPSIdTKdzo2r0F0p53" name="Page-1">
    <mxGraphModel dx="866" dy="522" grid="1" gridSize="10" guides="1" tooltips="1" connect="1" arrows="1" fold="1" page="1" pageScale="1" pageWidth="827" pageHeight="1169" math="0" shadow="0">
      <root>
        <mxCell id="0" />
        <mxCell id="1" parent="0" />
        <mxCell id="9HfGI17SHYBAd2q_ou8a-1" value="&lt;font style=&quot;font-size: 20px&quot;&gt;&lt;b&gt;PESSOAL&lt;/b&gt;&lt;/font&gt;" style="rounded=1;whiteSpace=wrap;html=1;rotation=-90;" vertex="1" parent="1">
          <mxGeometry x="-60" y="140" width="240" height="40" as="geometry" />
        </mxCell>
        <mxCell id="9HfGI17SHYBAd2q_ou8a-2" value="&lt;font style=&quot;font-size: 20px&quot;&gt;&lt;b&gt;HABILIDADES&lt;/b&gt;&lt;/font&gt;" style="rounded=1;whiteSpace=wrap;html=1;rotation=-90;" vertex="1" parent="1">
          <mxGeometry x="-60" y="380" width="240" height="40" as="geometry" />
        </mxCell>
        <mxCell id="9HfGI17SHYBAd2q_ou8a-3" value="" style="endArrow=none;html=1;exitX=1;exitY=0;exitDx=0;exitDy=0;" edge="1" parent="1" source="9HfGI17SHYBAd2q_ou8a-2">
          <mxGeometry width="50" height="50" relative="1" as="geometry">
            <mxPoint x="390" y="290" as="sourcePoint" />
            <mxPoint x="760" y="280" as="targetPoint" />
          </mxGeometry>
        </mxCell>
        <mxCell id="9HfGI17SHYBAd2q_ou8a-4" value="" style="endArrow=none;html=1;" edge="1" parent="1" source="9HfGI17SHYBAd2q_ou8a-5">
          <mxGeometry width="50" height="50" relative="1" as="geometry">
            <mxPoint x="400" y="520" as="sourcePoint" />
            <mxPoint x="400" y="40" as="targetPoint" />
          </mxGeometry>
        </mxCell>
        <mxCell id="9HfGI17SHYBAd2q_ou8a-5" value="" style="ellipse;whiteSpace=wrap;html=1;aspect=fixed;" vertex="1" parent="1">
          <mxGeometry x="320" y="200" width="160" height="160" as="geometry" />
        </mxCell>
        <mxCell id="9HfGI17SHYBAd2q_ou8a-6" value="" style="endArrow=none;html=1;" edge="1" parent="1" target="9HfGI17SHYBAd2q_ou8a-5">
          <mxGeometry width="50" height="50" relative="1" as="geometry">
            <mxPoint x="400" y="520" as="sourcePoint" />
            <mxPoint x="400" y="40" as="targetPoint" />
          </mxGeometry>
        </mxCell>
        <mxCell id="9HfGI17SHYBAd2q_ou8a-7" value="" style="shape=image;imageAspect=0;aspect=fixed;verticalLabelPosition=bottom;verticalAlign=top;image=data:image/png,iVBORw0KGgoAAAANSUhEUgAAAQAAAAIACAYAAABtmrL7AAAABGdBTUEAALGPC/xhBQAAAAFzUkdCAK7OHOkAAAAgY0hSTQAAeiYAAICEAAD6AAAAgOgAAHUwAADqYAAAOpgAABdwnLpRPAAAIABJREFUeF7tfQn8p1Pd9p1txBCGJOsMvcmeNZRlrMlWUd5SiEeb0mvreUSvvUJ69DyPElOULKVFEk1TjG3KWsjS2BIjQyiyhHqu629+/Ob/v/f77Pd1Pp/vZ+Z/7nOf8z3X99zX7yzfc85rMgUhIAR6i8BreltzVVwICIFMBKBGIAR6jIAIoMfGV9WFgAhAbUAI9BgBEUCPja+qCwERgNqAEOgxAiKAHhtfVRcCIgC1ASHQYwREAD02vqouBEQAagNCoMcIiAB6bHxVXQiIANQGhECPERAB9Nj4qroQEAGoDQiBHiMgAuix8VV1ISACUBsQAj1GQATgx/iLoNi3QN4GWR8yCbIUZDxkAci8kHkgDP+C0E78dzjkxfF5XjzffQHyLORpyCOQmZAbIFdB7oIo9BABEYB9o6+KIv4f5N2QCZDBh22/5Hol/BPJnoRMh3wcQnJQ6AkCIgDzhv43ZHk0ZBnzWVvPkT0FEsLzkH+MKm24ZzFoN4Neyehno3srzJM9kOcgf4M8DLkbch3kasg9EAUPCIgAuoP+HmRxGmTp7ln1MgeSw18hJIL9ILN7iYKnSosAmgPPX/b/hOwGCa0737w24b3BnsKfISSEH0CumfN3eJomoJEIoJ4R+dFfAlkHIszqYWYqFQnhAcj5kCNMZap8XkZAjbm8JXCG/O3lSfTUEQKDlYzbUN40CHsGN0IeclR+ksWIAMaa9ThE/TuES3EK4SJAQuCy5h2QMyFfD1fVcDUTAbxqG85KrxyuqaRZCQJP4dn3IfuWpNGjHAT6TgCTgQnH9gvmYKOouBB4Aup+CvLduNT2q21fCeBAwP5liLr5ftufydK5nHgeZE+TmaaeV98IgGP74yFavkuzZXP5MEYHLG/W6AsBfAgIfxMynzekVbALBDgxeAWEQzuFGgikTgD0w6e7KTffKPQDAQ4FroRs2Y/qdqtlygQwA9Bwt51C/xAgCfwcskP/qt6sxikSwPaAgDP7Guc3awuppeaGppMh8h4ssWxqBMBdZZNK6qtH/UKAG4vWhGiDUYHdUyGA1VA/uoimUp8Ccym6BQI89GSDFu/14pUUPphbYCmyvIIQyEOA8wHc07FF3sO+x8VMAKvDeL+DyJmn7624uv5aGSjAKFYC+Anqs1NBnRQtBPIQIAlMh8hHYAidGAmA3l46fSeviSuuCoGXkOAiyHurEvbleUwEsDyMwtNrX9sX46ieVhDgzsFPQ86ykntkmcZCANsC159C5o8MX6kbHgIcClwA+UB4qrnXKAYC2AawXAwZ5x4elZgoAloanGPY0AlgOeh5K2SxRBuiquUHgVkodlk/RYdVaugE8HvARScfBSFgEgHeT8B9ApebzDTGvEImgCMB6DExgiqdg0eA24Z5hNj7g9fUsoKhEsAbUO/7IDqqy3ID6HH2j6Hu7F0+2mMMgvWd13HcfW6VburO1YBvQXgbUW9DiD0A3rjDZRpt5+1ts3RWcTqVrQ3p7W7BEAngdhiEV2crCAHbCPDWIc4z8S6IXobQCGBLWIEnucjhp5fN0XmlORn4I0hvXYNDIwDesvsxSGh6OW+ZKtAZArxirLfXv4X2ofEwx3c4M70KEgJZ9muAsHFfgQiNAHSQZ19bop96cwhAt+AN/RTvv9TQCOA3fTaG/+bQSw3Y5np7enRoBMDu2Ea9bIaqtC8ERAC+kM8p917ETcyJV5QQsIXAdci4tz86ofUAeN+73H9tNXXlm4eAJgHzUPEQdzTK5Aag0EjJAxQq0iEC6gE4BLusKG7+WaksgZ4JAQsIqAdgAdSmWfK8v5kQnfrTFDml74qAegBdETTw/lHIg91/bQAyAKayaISACKARXHYS/xjZ7mIna+UqBEoR0BCgFB43D29GMeu4KUqlCIG5EFAPIIAGwdNZJgSgh1ToHwLqAXi2OR1/eOGHtgB7NkRPi1cPwLPh/xvlf9KzDiq+vwjIFdiz7R9A+VwGVBACPhAQAfhAfU6ZK+Jfdv+1/u/RCD0v+g7Un6cD9zL4druV+28vm11Qlf4btHkX5OqgtHKkjG8C+CHq+W5HdVUxQiAPAV4Z/g3IJ/Ieph7nmwC0/z/1FhZH/X4JNbeOQ1WzWvomAN7KsqTZKik3IdAYgevxRi+PBfNJALz2+2eQ+RqbSy8IAXMI8FxArgT08mBQnwTwdYC+P8SnDuaakXKKGYHeOgP5/Piu7SvrxvylJKq7CMCDYbn+/388lNvLIhdccMHsNa95Tfb8889n//wn78VUGEJABOChOcxGmUt5KDfpIsePH58deeSR2d57750tueSS2TzzzH3Ewj/+8Y/szjvvzPbdd9/shht4JL4CENAkoONmsDjKmwXRAaAGgF944YWzs846K9t1112z+earnlN98cUXs5NOOik7/PDDDZSeRBa8kGaTJGrSsBK+5gB2gJ4/gczbUF8lH0Jg/fXXzy699NJswoQJI937uuFf//pXdsopp2SHHHJI3VdST6chgGMLn4jy2Prqt1rHCoZc3HrrrZdNmzYtW2yxxVqr+cQTT2RTpkwZ6QnMns3RWK9DbzcE+foA6Xk1uddNrkXl+Ss/Y8aMbKONut9jwV4A5YUXXsgefvjh7DOf+Ux20UUXtdAqiVfUA3BsRt0A1BDwlVdeeWTSrsuvflmRJJZNNunlMJiwiADKGoeFZ39FnotayDfJLBdZZJFs5syZ2dJLL22tftdff3224Ya99IYlphoCWGtZYzNeDVE8BHSBsY8Uk4fA5z73ueyYY44Zs6SXl7Zt3HXXXWdkaNG2fM/vqQfg0ACfQlmnQnzNP4xUlY4xDMOz5+PGjcueeuqp7KWXuEM0nHDiiSeOzNg3melvqv21116bbbrppk1fSyV9bw8G9fEROr0DgB/N0Ucfne2///7ZUkstVfkryjXy3/zmN9nuu+8+MjkWQnBBAFwR2G+//UKorg8d1ANwiDodgJaxXd55552X7bbbbrUcY0brcu+992arr7569txzz41+5OVvEsDBBx9cSV5dlONy4GGHHdYli5jf/R2U7+W9FK57ACsB6LshVhyA1l133eyyyy4b+aXvEk477bTsk58M56BiEsBBBx2UzTuvFdhG9gbQffiEE07oAlvM774I5S+FfAVyecwVaaq7awKwcgTY2muvnV1++eUjS2Rdx8lcG//yl7+cHXrooU2xtJaes/Nnnnlmttpqq1khgUceeSRbYYUVMu4T6HHguQBPQaZADuoLDq4J4AkA2959Lccq11xzTbbxxht3/vAHWZMATj755CC7w+ymcyjQleSGYeTuwEmTJmWzZnFkpgAEyILfhHy8D2i4JIB9AejpECP92GWXXTa79dZbs8UX574ic6FvBNDz5b+ihkM/lY9Bzi9KkEq8SwI4F6DtAelcJne8Pfjgg1YcY0ImABurAT13ACr6jjkcmAbZtihBKvGdP8YGQExH2s0apC9Mym2sxx57rJVZcRLAEUccEeSEmAigsEnYePAXZEqntaR3SrkkAJ4+sZ4JS9n4EAZ6cUJs+eWXH9kkE1qwsRyoHkChlbkycCzkmMIUCTxwSQBk0m7rc3MAt0kAdP7ZY489siuvvDI4837pS18aWQ6sc+hHXeVFAIVIcRhAp7X3FKZI4IErAuDW36kQIxOANgmAbsBcBvzsZz8bnHl5AAg99uikZMonQJOApWbmdWHvKE0R+UNXBMDZ//1NYfXFL35xZDnM5C/hQDc6xfC0nJD8AEbjNn369GyzzYxMp2TqAYxGd66/H8RfSd9c7YoA2J82xqQbbLBBdsYZZ2RrrLGGsV/CgdlDXgUY6MhfbWJgIogASlGkLzj9Ac4qTRXxQ1cEYOUOQBuOMSF6Ao5uXyKA0YhY+5vnp18A+YC1EjxnHDUBcFKM22RHH33dBdO+9QA0B1DZWpKeB3BFADxxxfhxMxwHT506NeM+flNBBGAKyWTySfqsAFcEwHPX32ajSey0007Zd77znWzRRRc14iMfAwHwvAJTx3epB1DaKrkUeBVk89JUET90RQA8cMHMrFUB2KacZGIgAM0BFDQC89EkgK9BwtkbbriOrgjAyiTgMBamfAP6Ngl48cUXZzvvvLPhZpVMds+iJttDwvMKMwSxKwKwMgcgAujWCrgVmIen8BxEhTEI8Nef91dsM+ZJQhEigFHG7EsPgB//Wmutlf3hD39IqDkbrcrjyO1NEP6bbHBFANYmAQeWMeUTQE9AugKHfD5e1zmA22+/fcSJimSnkIsADwXZDnJF7tOEIl0RgPUhgCkCSHkS8Omnn84mT5484v6rUIgAz4TfHfKjwhQJPXBFAE56ANwp19UpKIYhQJNlQNbnsccey3bYYYeRq8UUKhHgJgsu/fUiuCIAJz0AUwQQ6pmAgxbJSzx4DmJZ4Bj/3HPPzQ444IDsmWeeKUuqZ68i8DT+u0ifAEmKAEwcmBnDEGCXXXbJTj311GyZZZYZ2QxFnfnB33PPPdnZZ5+dnX766dnf//73PrVjU3V9EhmZPWTSlGaW8nFFANb9APo0BzBoC/z4Q7vGzFI7dZXtn1GQ9UtrXFWmTjmuCMD6EMCkI1DoQ4A6hlWaVgjchbdWbfVmpC+5IgDrk4CmCIC/qDwUlIeOKPQOgaQ3/uRZ0xUBWN8LYGoIQMcYXjGmMXRec0k+rneXhLoiADIrtwNbK69rD4ATaXfffXe2+eabB3MrcPKfW3gV5FDVyq7V8Kr6skbWPshRFQ56DoBXgl9wwQXZnnvuGaqdpJd9BOgWSQ+pjewXFU4JvSYAuv3yerHdd989mzlzZjhWkSa+ENAQwBLyQU0Ccs2c7rD77bdfdtddnPhVEAIZewC/gmzdJyyS6QHwfMADDzxwruPBOK7nTbr8lzf98D7B0047bWSzj4IQyEHgJMQdlhOfbJQrArDuCPTWt741O/LII7O11147Gz9+fMZx/eOPP57ddNNN2YUXXpjx4AsFIVCCAHcA8uq620rSJPfIFQFwEpBHgrkqLzlDqUJWEWD3/xbIOlZLCTBzVx+k9VWAALGVSvEgwC3APPjzmnhUNqOpKwKw7gdgBg7l0lMELkG9d+xj3V0RgIYAfWxdcdT5Iaj5Zkgvt0+6IgDry4BxtDVpGRgCPCiBHqq/D0wvZ+q4IgDNATgzqQqqicCLSLcW5I6a6ZNM5ooArC8DJmkdVcoWArz0kzP+t9oqIJZ8XRKA1c1AsQAuPb0jwCU/nvj7C++aBKCAKwLQECAAY0uFEXdfffxDDcEVAWgSUF+fbwT48a8AedC3IiGV74oA1AMIyer904Uf/zz9q3Z1jV0RgByBqm2hFHYQ4ITfEpC/2sk+7lxdEYB6AHG3k1i151IfT/i5MdYK2NZbBGAbYeXvCwF69vF0n946+dQB3hUBTIcy74C4Kq9O3a2nmX/++bP55pvvlXIG5xMMFzw6jn8PAs8yYBjE8e/tt98+e+c735mtueaa2eKLLz5yL8CsWbOyX/3qV9mUKVOy2bNnW69XBAVwoo9bewVGhbFcfZDfhR57QJKciOFHfvTRR4+cMLTkkkt2vp+wwmZzPSY5kAR4X+B2222n04yz7FIAtEMTDPuc1hUB8OP/OuR1qYA9bty4kcNGVltttSCqdNFFF2W77rprELp4UoKTfe+G/MRT+VEW64oACM4PIbtAou0FsAt+2WWXZdtss83IUWOhBPYCeBrS8ccfH4pKrvV4AAWu6LrQFMpz3YofAWivjw249dZbL5s6dWq2xBJcTQovPPLII9mkSZP6eAswJ0zeBWG3X6EFAq4J4FroWH6vdYtK2HplnXXWGZlc42RbqOGJJ57ISFD33XdfqCra0ms6Mt7CVuZ9ydc1AVi/IsyU4a655ppsk002MZWdlXxmzJgRvI4WKv4X5PlGCA/xVOiIgGsCuAr6vr2jzlZfX2GFFbLf/va3Qf/qP/nkk9nkyZOzm2++2SoWgWXO7j4n+S4KTK+o1XFNAD8GWjtDXJdby0gLLLDAyJr6hAkTaqV3nYjdfU5A3nhj7xzb7gXWb4HoV99wo3P9IR4B/T8Pmd9wPYxkd84552Qf/OAHjeRlMpNp06ZlO+64Y8YbjXoYvoo6H9jDejupsmsCWAq1Yr+VYzjXZZcCyl//2267LVtllVWCWOK74447Rib3nn322VK9E374AurG3uJlCdfRe9V8fITHodaHQMZ5r/2QAssuu+zItWFbbbVVttBCCzklAV5S+uijj2ZnnHHGyHp+zwPH+r27pdeXzX0QAOt6NuR9kAV9Vbyo3HnmmeeV+wVH++nzHX6sTDMIw376ZXF8Npwf8+lpl74IesZzjP9OCC/pVHCAgC8CYNX+DULXNQ4LFPqNAH/1/wuisb7jduCTAAZVvRz/4U7BeR3XXcWFgcBUqMFz+hQ8IBACAbDaJ0M+DlnIAwYq0g8CPJKb5/IreEQgFAIgBFznpafgeI94qGj7CNyOIla3X4xKqINASARAfTknwBWCBeoorzRRIcCTocP2rY4KTjPKhkYArNXFEM4Ea07AjI195sLJvfMg4XlX+UQloLJDJADCcwWEE4PRnh0QkI19qEKXxcMg9OJTCBiBUAmAkNEDbCvIq4fqBQykVBu5dYc++3tDrhYecSAQMgEQQa4O7AtZLA44e6klP/yjIMf0svaRVzp0AiC8PEHoFMh7IPQcjEHnyJtFI/WfROpwT0xpVJX+JY7tY7oSJuJMsiYIw2mrvHGHBMCegEJkCMRGAISXw4L9IMmcMBxZmxmtLj/85yBc3z8WogM7RiMU8N8xEgDh5LCARLANZGlIrPUIuGk0Vo1EcBeEDl0KkSCQwofDNWb+8qwESaE+kTSdXDV5F98BkNNznyoyOARS+WC2mNPwNsO/S0JSqVdwDaaGQjz6fSKktyeZ1MAomCSpfShseOtA9oFsCuHyoZyJ3DY3DgXow6Hrudzi3qq01AhgNAjLIIJE8AUIyUGrB6MRsvP3M8iWW3zlEGQHX2O5pk4Aw0Dtjz+4erAGJAV/gsHsOz+20I4xpm63QNgbUwgYgT4RwMAM7BVsAKE/AcmAB5QuCuFZBNyFOOglDLAZrG/z7+G17uG/R/8fSUfSDuLL/h2k5b+D/7+E//B4LH7cj0L+COFhqtMg/LA42TYITBfiKcusAy+E5aSgQqAI9JEAAjVFK7X+hLeWa/Wmm5fuQTGruClKpbRBQATQBrUw3rkbaqwchiqFWjyNJ4sUPtUD7wiIALyboJUCsVyyymHQzyA7tqqlXrKOgAjAOsTGCzgHOcZ0wMY/oS+v7xYJGG8K3TMUAXTH0GUOH0VhnFiLLXBC8FzIh2NTPHV9RQDxWJjHpPG4tFh9GeQbEGBbEwEEaJQCle5E/JsLnsUQzfkAzl0EfT18DECa1FEEYBJNu3lx7T/WX/8BMtwfwB2c19iFSrnXRUAEUBcpv+kuQfEp+NazF8C7H97mF06VPkBABBBHWwjV268Nerz2+9OQGCcz29Q36HdEAEGbZ0S5n0LeFb6ajTTkluFJEE4MKnhEQATgEfyaRfOM/dRuSuJQgFeAb10TAyWzhIAIwBKwhrL9PvLZzVBeoWXDYQ2vA9dQwKNlRAAewa9R9N+QJlVfevYCZkM0FKjREGwlEQHYQrZ7vrsjiwsgKduIJMAdjRtDZnWHTDk0RSDlxtUUi9DS3wGFVg1NKQv6kAR4rPg3IJ+xkL+yLEFABFACjsdH3OY7E9In+3Cyk9fDH+sR994V3acGFpNxH4eyfbxui3MeW0FuiMlYMesqAgjPelOg0kfCU8uJRhwO3A/hxKCCAwREAA5AblhEiuv+TSDg+QG/gGzf5CWlbYeACKAdbrbeStHrrw1WdBc+DqIrx9ug1+AdEUADsBwkTcnnvytcTyGDyRDNB3RFsuR9EUAJOI4fXYjy3uu4zNCLuw8Kaj7AopVEABbBbZh1yl5/DaF4JTnnA3jNWGqbodriYfw9EYBxSFtl+D68dT5E9hgLH4dF3D6sG4fHYtM5Rg2uM4RGMrgRuaxrJKc0M9GNw5bsKgKwBGzDbDnrPV/Dd/qUnEOBqRAejKpgEAERgEEwW2aVynFfLatf+zWeJ8gbh6+q/YYSViIgAqiEyHqCvjv+1AVYpwrXRapBOhFAA7AsJOV2X04AKtRDgL2AbSFX10uuVFUIiACqELL7XEt/zfBlL+BKyBbNXlPqIgREAEXI2I/nL/95kHnsF5VUCSTNN0F4mpBCRwREAB0B7PD6DLy7EUQ2aAYiVwR4bsDnm72m1HkIqPHloeIm7mkUs7CbopIr5RbUaO3kauWhQiIAD6CjyD6c92cTWZInT03SMKAjyiKAjgC2fF2efy2Bm/OahgHd8HvlbRGAISAbZqNtvw0By0n+O8StkxOvqAYIiAAagGUoaUqefy8BE65i+GhHGgYYaJA+DGdA7aizSMnvnx8hryx/rQeLcBhwAuRID2UnU6QIwK0p6cf+drdFWi3tSeT+e8gmENdtiU5Bt0K0GtDBxK6N1kHV6F+diBrc4+FDsQkcCWBHyDTIgjYLKsibPZBVINwurNACARFAC9BavsKP5XUt3w31NdaJ9xfcBlndg5JaDegIugigI4A1X/8x0u1SM21MyZ6AsktAeJvP4RAfbs23o1wf5BOTnQp1FQEUQmPsQcrXfA16AK8HWhzejDeGWv2MuKT6YQh3Vio0REAE0BCwFsn/gnf4K5liGPQAWDeuy68Jcd2mOBnI04NJtAoNEXBtrIbqRZ/8K6jBgZBUcR4mAF7iwWEAlwVdB84F/DeEWCs0QCDVhtkAAqtJU/71J3CDIQD/73MYwPJJRmtAZvEPhXoIiADq4dQm1aZ4iYdX+JgYa6Nvm3eGewB839cwgGVzKMA7BXluoEJNBEQANYFqkawPx32NJgCfqwE0Ef0C1obc28JevXxFBGDP7A8h6zfayz6InIeHAFRoachMyCKetGMv4DuQvTyVH12xIgA7JqNv/F8h89vJPphcR/cAqBiHAWt51PBhlJ068RqDVwRgDMq5MjoMf30Rkjq+j6OOE0ZB6HM1gKq8CPkk5Buj9NKfOQik3kBzquwkikdWcU3cVmBX17ftqMMfIRNHVZKrARwGLGqr8hX5Uq+bIetVpNNjIOC7EaVqhOdQsXEWKxcCAbB634bkjbd5oy/P7/fVvoj/NhDdH1DRCH0ZqEKtqB9zj/q/W2z8zyBvzjH4th0PAym6z3AZPOM2YW4U8hFIkNMhW/ooPKYyfTeimLCqqysPqlyqbuIW6X6DdzaE+LbdU9ChrJv/VTz/BMSHZyBh5QTlshDeJqRQgIDvRlSgVrTRW0DzX0Fs4cp7BPlhHWKxjLrgj14CzHuPG4QmetKVk4F7QrRJKM8yc+JsNdSSIpN+9FvUjo4otsL1yPgKyMEQ3x6GdHNesqKivP2I6/ILVKSz8ZjDAN689EEbmaeSpwjAnCU5Hub43NbaPxv0+yEbQELoAVwHPXizUVWwTYpl5d+Fh6uWJej7MxGAuRbAXzp2OW2FvyNj7rc/EeKbADiufjfk5zUqux/SfA1SNGFYI4vWSeiMxV4KhwMKOQiIAHJAaRll+6bfX0OvjSEhEMCnoAe339YNvtyieQLzZIiWAwssJQIoAKZhNH/l6HlmC092//eAfA/imwAGPZEmEJ2FxB+CuJ630JmBFVay1WArik3u8X2o0UoWazW85HYSyuEkoC/b5fn/V1Wd13nTO8/HZahTUa62CBdYyFcjKlAnyujloPX9EFvr3fz1vxDCGXWGGAmAel8F8XEnwt0olwSkkIOACCAHlIZR/IWh26mtwHHs8DKabwKos/6fhwUPSPklxKaLdF65dMziNmWFHAREADmgNIziIRQ2u7Y/Q/7vGtLJ9xxAmyHAQH3+Gq/cEN+uybvo27Xs4N8XAXQz0e54/XyIrcmt0b/+1NY3AbTtAVD370L+L8RluxMBEPmC4NIQBSpEHT0D2r/NUg1Gj/0HxcQ6BKD+XMmgv4RLnwARQEkDFQGUgFPjkc3uP51tFsrR4XTE7Z8T7yqqywfFXYy8x8/lkWFdeiyuMPVWjgigPfTs/nOjiS0Mee31caPU4wWcj0FszjlUIdKFAJg3D+ycWFWIwedd9TWoSnhZ2Wq84dXUvEY3Ist1zWc7kiM/8rwtxZ9DPI/csjXnUKc6XT8oug9z1cRV23sUZfGUIoUcBFwZIafo6KM4QWdjLMuxP9fLr81ByPf4nyp1JQASGInMFYlx6XHrHCwVBQREAO2awU/x2vDSXLtc8t+6HdGr5z/yvgJAtbqOqTdDHtMgtnZNDkNHV+D1ITcX4Nn7aBFAuybAG2ltNGAes8WJMvYu8kIIPYCuBECPSe7SczGPQRftSXlAKu5lBEQAzVvCL/CKrS7lFOTNjUVFIQUCYN04jFisqJKG4vnrvzeEy44KBQiIAAqAKYjmrz6X52z4/f8Z+fIwzbLg2wmIunWdA2AevE/A9oGhnGzcvgxMPdMcQNM2wJNuV2v6Uo30PLCizpCCBOD7OLAYCKAunjVMk3YS9QDq25ebWbijzTRmnPXn6ToX1VAlhCGACQKwPQS4CVjqYpAaDcp0Y65RZLRJuJ7M46VMhyKPv7xyUhkC2PSgLFtGzcO013EigHrm57r1aK+8em9Wp6pzuu4glxCGAF1XAXiQKPdQ2Gp7bU4sqrZSoilsGSE1uGxe9XU/wJpYE7AQegBdCeAK1HXzmvVtk8zEEKVNuVG+IwKoNhs98ngYp43A7iqXqfaqmXkIBFB1I1BVVWx5UA7K7UpQVfon9VwEUG7OXfD4x+VJOj3lPQJNHGI4CXgQxJUbbV7l2BviSgidbJqGS/GC7aU5EUADq4gAysGy/Wt1AIr/n3IV5noawioAl9jeD/lhA72Z9MOQb0Fsk5cIoIFhRADFYP0Rj1Yoftz5CX9J6fbbJIRAAPSw+wLkiCaKI+2fIMs1fKe5yE91AAAahklEQVRNchFAA9REAPlg/QeiOetv89eqTUO9GDrtmK+y09gfobT3NChxK6SlC7WL9tYG1wZVSSupC4PEiNgdUNr2nXJ0h53QABxexT0L0mTOoEH2jZLyLATusqsb6Jjz1rqJO6Zrsqzasaj4XxcB5NuQjWiJ/EfGYh9CTk26xPRF8H0YyKDyD+A/KzZAggecNCG7BlmPSXoDYjYYE6uIXAREALmwZHQmWSj/kbHY6chpiwa5hbAEOFCXXpFNTtlxsfmHutGrclvI1Q1w7XVSEcBY83O2+uyx0UZjOJHGE3K/3yDXkAigqbONKwKg7bT9t0GjEgHMDRY91HhajY2jvoZLauNMExIBNJ1oc0EA3F/g8rThBp9ZuElFAHPb5nr82WRyq61lf4AXd2v4cghLgAOVQySApjo1hD/N5CKAue3qYrKKx3616WGoB1D+DTYdlpTn1pOnIoC5De2iq8rz8BZr0b5IAL4PAxmo3fTX9m940Xb3vKlOLUyQ3isiAPcEcBuKXLNFUwphH8BA7Sa/th/CS99uUd+mrzTRqWneyaYXAcxtWv6KvM6itbn7bx9Im1WGkIYAdXsxb0dd6QHIG41sBxFAC4RFAHODZnPfP0tq6vwzrF1Ik4DEiY5AsyvaHJ1yXB3NVXSbUoWK/X4sAnjV/rbv+mNJ74M0Wfsfbp0hEQD9GE6A8P7CsuBiUnVQftuhVZn+yT8TAbxqYvq327rrj6W0WfsfboAhDQE4lPkdpMq/n93yNhOew/Wu8/8uQ6s6+SebRgTwqmlt3fYzKKHN2v9wwwupB0C9+HHTv58fX1FwsarCsjkUWbpICcUXIyACeBkbzlJzttpWaLv2P6xPSKsA1Ot5CMf3vCuhKLggAB7asgUk7zLVIr0UPwcBEcDLQNyHf1ay2Cq6dv+pWkhDAOpDUvsE5BsluLkggL1QvotlxpJqxvtIBPCy7biLzOZSlYk96qENAdj1/xZk35Lmb5sAeG7DaiXl61EFAiKALPs0MPpPiE0sTMxQh9YDYNNit5s3JhUFmwTAHsjmkGuKCld8NQI2G3116WGksNlIWUM2VP5Knt2xuiESwP2o08SSetnE9gyUu39J2XpUA4G+EwDX5c+H2MSBnnA8pKJrCG0IwPo8Cik6GIRegLxL0Ua4DpnyhiGFjgjYbPgdVXPyum1PNZO31IbYAyhyv+XBHN+EzGvBirr6yyCofScA22v/Jsb+A3OH2API24HHcTkvAGl65HmdZs3h1JYQWz2LOjoklabPBGB77Z+z5HtDTC1RxdIDuB51tnGoimk8k/qQ21amzwRwL0Arm8Bqi+ngPTrKmFxajIUAeDTXwl3By3n/Y4g7PSdeUR0Q6DMB2D762/TutBAJYPQQgPf+sftvMuiX3ySao/LqMwHYvPePjZbjVI6HTYUQCWD0JCAnPU1O/NFBazLk16ZAVD5zI9BXApgKGLax2Bi4/r0jZIbBMkImAF6fTsIz+fEzv80M4qeschDoIwHsBRymGG6sw9Dy/DuW8eMcvLtEhUgAHALQk/JsiMm2xLsZv9gFLL1bDwGTRqtXov9Ut0CFNmfyVWnObv+fIDtDuFfedAhxGZAnA5mc6CRmo4cVpnFUfkMI9JEAbGz8oT/BuZB9LLau0LYD26gqSfQzkK/ayFx5jkWgbwRAD7WzICbqzcZKx5Q7Ibzmq2xf/Fjkm8eEOARoXovyN6bj8RblSfTUJAImPgST+tjO61YUsIaBQjjbfR/kIxBXF1GGOAQwAOUrWdB/wPbdASb1TSKvvhFAl0Mq+YvPMS+XpA6A3O64BaQ8BGBPahfIJY4x7X1xfSMA7l5bsoHV+dFzfD8L8hXIfzV413TSVIcAPGH4UMgppgFTftUI9I0A2F3fEMK7+Ybrzg+dgf+yQT4DeRDC467OhHAHmu+QIgEQ66bXpPu2Q1Ll940A3gHr7Q3h8d/sCcwP4Xiea/czIVdAeD045wpCC6nNAZBkl4XQl0DBEwJ9IwBPMBspNqUewIVAhBexKHhGQATg2QANik+hB8AdkjwnYDDkalB9JbWBgAjABqp28oydAD4BWL5mBxrl2hYBEUBb5Ny/xyHAwZB53BfdqcRH8PYbOuWgl60hIAKwBq3xjGObA+AMPydddWOP8aZgLkMRgDksbecUUw/gOIBxpG1AlH93BEQA3TF0lUPocwCc2PsShFt5FSJBQAQQiaGgZsgEsCX0uyIeKKXpAAERQDxtIdQhgPbvx9OGxmgqAhgDSbARofYARADBNplqxUQA1RiFkiLUVYDRJwOHgpf0qIGACKAGSIEkUQ8gEEOkpIYIIB5rigDisVU0mooAojFVpiFAPLaKRlMRQDSmEgHEY6p4NBUBxGOrUHsAWgWIpw2N0VQEMAaSYCNCJQCtAgTbZKoVEwFUYxRKCk0ChmKJhPQQAcRjTHkCxmOraDQVAURjqmD3AmgOIJ42NEZTEcAYSIKNCHUIoDmAYJtMtWIigGqMQkmhScBQLJGQHiKAeIwZag9AQ4B42tAYTUUAYyAJNiJUAuClKeODRU2KlSIgAiiFJ6iHX4c2Hw1Ko5eV4dl/Z0H2DVA3qVSBgAigAqCAHv8BurwpIH2GVeEwYFXI7ED1k1oFCIgACoAJMJrXZy8coF5Uibf7fgGig0ADNVCRWiKAImTCi38WKi0YnlqvaHQT/rdewPpJtRwERAA5oAQa9Rz0GheoblTrYcgbA9ZPquUgIALIASXQqNB7AI8DtwmBYie1ChAQARQAE2B06AQgj8AAG02VSiKAKoTCeR46AcgfIJy2UlsTEUBtqLwn/Bs0WMS7FsUKcCWAvgoHFCfRk9AQEAGEZpFifbjWvljx4yCe3AstVg5CEylRCwERQC2YgkjESbbFg9CkWAntCyjGJsgnIoAgzZKrVAwEwAtCb4YcDflJbi0UGRQCIoCgzFGqTAxDAFaAewNugby1tDZ6GAQCIoAgzFBLiRh6AIOKvID/7AZRL6CWaf0lEgH4w75pyTERAOvGHsuakIeaVlTp3SEgAnCHddeSYiMA1vcpyMmQY7pWXu/bQUAEYAdXG7mG7gdQVOfH8GB1iLYKFyHkMV4E4BH8hkW/iPTzNnwnhOScFDwe8vkQlJEOcyMgAoijRVwCNXeIQ9VcLe9E7FtynyjSKwIiAK/w1y78H0g5f+3U4SXkqsCnIKeHp1q/NRIBhG//q6Di28NXs1LDR5BiEuSZypRK4AwBEYAzqFsVxA/mbkgKdqKX4GWQmIcyrYwY8kspNKyQ8e2qWyzef3XryV//7SBX131B6ewiIAKwi2+X3L+Jl/fpkkGg714DvVIY0gQKbzO1RADN8HKZ+nkUtoDLAh2VxYNNtoWoF+AI8LJiRABl6Ph7FvuyXxlynAvgZqF1yhLpmRsERABucG5aSuzLflX1pVMThzgh3nRUpXtSz0UA4Znze1CJO+ls2obHdzH49Cx8FOWvCOGQQMETAjYbmacqRV+sC5//B4ESzxd8nUe02AvYE3KBRx16X7QIIKwm8D6ocz7Epl04BmfXeyfIjpbLKkOXerCuHyhLpGd2EbDZ0Oxqnmbu9PrbFGLTLpxf4A1DC0F4iOfrLZdXZCkSAMtfpSiB4u0jYLOh2dc+vRK4ddb27Tp/QRlLzoHu4/j3VIivfQZc6twGQuJT8ICACMAD6AVFckzOiTHb9//dijLWGtLh1/j/hhAfbYG9gGkQ+gUoeEDAh9E9VDOKIukjfzFkHova8oPbG/LtoTLolTcV8lqL5ZZlrUtFy9Cx/EwEYBngBtmfiLSHNkjfJilvGM770OmVtwnER3vgnMRWEHkGtrFox3d8GLyjysm+/kvUbLLl2hVd3MFeAHfqLWy5/Lzs2Su5FqL9AXnoWI4TAVgGuEH2vF3X9rr8/ShjYoFOHBZ8EGJzCFJQ9IgzECcDuVFIwSECIgCHYJcUtRee0TXW9sf3HZTx4RI9HsCz5Uue23rEXgBXAja3VYDyzUdABJCPi+tYbo7hGfo2A4/lqtpdeC7S7AFx3S5IADxC/E0QnR5ssxWMytu1oR1WLaqiXKz/3wRE1qtAhR8/ewnzVaSz8ZinB58AOdJG5sozHwERQD4urmM5O29z/Z+/sPy4udGoLHCF4CGIr1uIdXpwmXUsPBMBWAC1YZZ7Iz3H/zZtMXD/raPaFUi0mWV9ivTgBqFjIMcWJVC8WQRsNjqzmqabGz3z1rBcvb8i/8VqlsG9CJdDfLkHczfk1pDra+qrZB0QEAF0AM/Qqy7G/7xXsMkeA3rnvcFQ/dpkcx9emtTmRb3TDAERQDO8bKR2sf+f4/rlGihP/3w6JflqH5wQPA/C8wIULCLgy8AWqxRd1hz3zmtR6zZr7BwG/AKS5zZsUdW5sm5KWq70SqocEYBfc7o4/osE8H7I9xtW1ef+AKqqPQINDdYmuQigDWrm3nHR/f871B3fQmX65rMXsGCLd028QuLS6cEmkCzJQwRQAo7lRy6O/2IVuN9/45Z14QrF6hBf7YRzAZdCeHSZggUEfBnWQlWiy3I6NOZ6u83AD4gOQE27/wOduB5/OMT2HoUyDHiC8c8h7ypLpGftEBABtMPNxFs8mXdZExmV5MEjt7p04Xle4F2Quj4EJap0ekQi43ZlkUAnGMe+LAIYi4mrGJ7Nt4Tlwpo4ABWp8gM82BXisxdA3TQcKLJQh3gRQAfwOr7qYv8/yzDh138v8lkJ4ru9cDjAzUr7dMRer89BwLdB+2wI2xuAiG3RCUBNcV8fL/DEokWbvmghPVdOqM9MC3n3LksRgB+Tu1oBaOoCXIYGt+keBQlhKHAO9NirTFk9q4eACKAeTqZTcWluI9OZ5uTHiUaTJ/w8gvw4Meg76CRhQxYQARgCsmE2TyO9iwM4p6OcLRrqVpacjkE8wdd3u6H7NC81ObNMWT2rRsC3Ias1TC/F7qgSL8S0jX1bF+AyxN+Bh3TMcUFeZXqwbjMg3LOg0AEB242wg2rJvspfZX5ItrHv6gNQZIBv4wEv9LS5gamo7OF4nh24dJ2ESlOMgO1GWFxyf5+4cAAiuiZ8AIqs9FM82B7ikwS4WYhblnWUeJGVasSLAGqAZDiJCwcgqmxqCbCo+pfgAUnA16qAhgFFlmkQLwJoAJahpFyaM+GcU6XO8C3AVWnbPmdP4J0QXyTAC0W2g1zVtgJ9f08E4L4FuCKAG1E1OszYDj5JoM1hJ7bxiCp/EYB7c3Fsbtujjl6GW0Lob+Ai3IFCVnVRUE4Z9AzUhSI5wNSJEgHUQclsGhcuwPSS42y9q7A/CvofiK8LRY5H2Z93VdmUyhEBuLWmCx8AXrFlu4eRh9osRC6T98BBHDcrreygnOSKEAG4Nel0FGf7EBBTOwCbInM2XuApvj4mBLVVuKm15qQXAbQEruVrLnwAfBHAJGByO8TmFWdlsHOrMC83/XBZIj2bGwERgNsW4eIQUNvr/2WI+RwGUC8egErfBJ5orFADARFADZAMJdkH+UyB2Mbc5BbgplWfihe2dlDHIr24LHgthCcaK9RAwHZjrKFCL5JsiVr+DNLlfL66QN2HhOyO+wjc48ADPH1eKCLnoAaWFwE0AKtDUl50uR7ENt78BeSRWVwG9BXY/fa5S48Y6D6Bmta33SBrqpF8Mlf+/02uAbcFOj9+3i3oordTVAedIlyEzKh4EUBNoDom48Sci6O1OcwI4ejs26AHLxTxGbQ0WAN9EUANkAwkceH/z2UwH554efAcg8jPQXz4BAzrQ0zOhuybp6Ti7I9JhfHLCLjoAfjyAMyzMQ/q4P4AF7se88ofjqNfxJshPEBEYRQC6gG4aRIuCMDn+n8eimcgch+Iz0NDqBd7AV+AHJmnZN/jRABuWoCLIUBoBEBkuVV4B4jvdkYHJdvXsLlpSYZL8W0Yw9UJNrvUPQDLgP8tHq5dlsDRMw4FDoB811F5URQjAnBjJh5jbbsr7GsPQBWC9Mqjh6BP56BhHR/DH6dDjqhSvA/PRQD2rcyz89gNth1CHAIM6syDOzeGhNLeOC/AOw54nFmvQygGSdkIPJ57AQcVDLUHwKrTOehyyPwOcKhbBD0GuXLCg0wOr/tSaulEAHYtehayd+WWG3IPgCiH4BxUZG0e00YioO9Cr4IIwK65eVLNRLtFvJJ76ARwIjQ9BBJqm+Ow4DLIjo7sFUQxoRojCHAMKOFqDwBVFQF0Nxgna78O+VT3rOLIQQRg104u1v8HNYiBAA6Gsr7dg6ss3qvzBUUAVc2h23MRwKv4nYT/kgBCb3MhT6Z2a405b4dujByVo4rir7KLXYAEJfSGG/ocwKBhvYD/bAnpxZ2DIgC7fOKSAFxcBdYFrVgIgHV8BnIKJPn9AyKALk26+l2XBHAT1OGpQ6EGEkAMcwAD/NgTOA/iahnXi91EAHZhdzUHQKcWutzyQMxQA+8MmAJx4RRlCgOeMkxvwWQvHxUBmGoq+fm4IgB2WRfOVyGo2PuhzYpBaVSuDIn1l5BtypPF+1QEYNd2rggg9CXAAcrsAXzELuTGc+dlLssbzzWQDEUAdg3hag6A59/9AcJ5gBMgv7dbrda5xzQROKjk0/jPIq1rHPiLIgC7BnLVAxjUghuPvgL5D7vVap17jARAcj0NkqR3oAigdVuu9aJrAuCY9WTIYbW0c58oFmegYWSIKb0DV3EPl/0SRQB2MWb30eXkHBvrlyGH2q1W69xj7AGwsiTyCa1rHfCLIgB7xtkcWV9hL/vcnNUDyIWlc2Qsk6yNKyoCaAxZ7RduRMp1a6c2kzB0AuAEJXsnodxfUBd1EUBdpJTuFQR49pzrbmPoBLA+MPkRZLnI2okIIDKDhaCu6wlA1pkz1p+HHB8CAAU68MANutiOL3geYjTvXJwI4fHiSQUNAeyZ05UPwHANOOnI8+95DHnI4RQoxyO6QzojsAovHhvGK8+oezJBBGDPlK57AOz+8w68b9mrktGcXZ2WbEpp4nsX5C2mMgwhHxGAPSu47gHw7P3t7FXHeM68rov+CqGfEDRc8dDPXGhsJBFAY8gKX1gQT46D0GPM9Y439jZWhHAIEEvgNebnQ2KbC9gaOiezO1AE0O1zGYfXvw15L8T2zT9FmvJXaW3IA0UJAo7nMIDbbWNphxwGTINsGzCmjVSLBfhGlXKQmAdvXApZykFZZUX8Gg95406sYScofi4kpl5AUrsDRQDNPh069nB/uKtz/oq0468+DwAJdddfkd558UchkicFxUICSc0DiADymmR+3LWIfhvEJ2Z0LmKX+YZ8FaON/RI056UhMUwIPgc9Od8yO1q0hxT32ZhjwW8lKPo7yKIeFeYJtZMhdEhJMcTkHERnKzpa0eEq+iACKDchr7SmA4gvh5VHUfbSEE4+pR5+hgpuD4mhTd4DPZPYHhwD2L4a/utRMGfWOdPvOrCbya7+Fa4L9lheTH4B7AVwEpg9l6iDCCDffAshmiz/hvzH1mLZ29gFMt1aCeFmHJtfQBIkIALI/yDooXYsxIVDDy+kZPf3AxAeQ93nwHE1sXd5iEoXvJ/By+y50AEsyiACyDfbBog+A7IahHvXTeLEXw6O7c+GkGRi8t6DutYDVwQOgsRwZsCz0JOnHB1lHRVLBZhs2JZU9Jotl6U4BzB6Em6A2yB+GMfhtMPpOK5XqEZgQyT5IYS7GkMOJHL6YewG4YnMUQYRQJRmS17pjVBDksAbA60pSf4hyB6QqC8RFQEE2sKk1sjYms5BoQ0FXoJOd0LeB7k9djuJAGK3YLr6cx7mTMhgHsZ3TfmrzzH/tyA8zCSJIAJIwoxJV4KbnS6E+BwO8KZgeoN+CMJf/2SCCCAZUyZdkZ1Ru+9CXG4Y4i8+l2hnQj4KuTpFhEUAKVo1zTq5OkeQHz5XbLjVmoe7pLDjsrBFiAAKodGDABH4KXTaAWK63fKjZzf/YcipkK8EWHcrKpkG0oqSylQIzEHA1LZhfvBcx+cvPT96TjZ+DRL6acrGG4IIwDikytAiAl22DfMXnucpcBLvSsjFEN7e1OsgAui1+aOs/P+H1lyG461LRe13MI6nh97JkHOirKkDpYsAdFC0ihACnRDg+fxHQHggKlcHOGPP7jxPbvoepPe/7sCgMogAKiFSAiGQLgIigHRtq5oJgUoERACVECmBEEgXARFAurZVzYRAJQIigEqIlEAIpIuACCBd26pmQqASARFAJURKIATSRUAEkK5tVTMhUImACKASIiUQAukiIAJI17aqmRCoREAEUAmREgiBdBEQAaRrW9VMCFQiIAKohEgJhEC6CIgA0rWtaiYEKhEQAVRCpARCIF0ERADp2lY1EwKVCIgAKiFSAiGQLgIigHRtq5oJgUoERACVECmBEEgXARFAurZVzYRAJQIigEqIlEAIpIuACCBd26pmQqASARFAJURKIATSRUAEkK5tVTMhUImACKASIiUQAukiIAJI17aqmRCoREAEUAmREgiBdBEQAaRrW9VMCFQiIAKohEgJhEC6CIgA0rWtaiYEKhEQAVRCpARCIF0ERADp2lY1EwKVCIgAKiFSAiGQLgIigHRtq5oJgUoERACVECmBEEgXARFAurZVzYRAJQIigEqIlEAIpIuACCBd26pmQqASARFAJURKIATSRUAEkK5tVTMhUImACKASIiUQAukiIAJI17aqmRCoREAEUAmREgiBdBEQAaRrW9VMCFQiIAKohEgJhEC6CIgA0rWtaiYEKhEQAVRCpARCIF0ERADp2lY1EwKVCIgAKiFSAiGQLgIigHRtq5oJgUoERACVECmBEEgXARFAurZVzYRAJQIigEqIlEAIpIuACCBd26pmQqASARFAJURKIATSRUAEkK5tVTMhUImACKASIiUQAukiIAJI17aqmRCoREAEUAmREgiBdBEQAaRrW9VMCFQiIAKohEgJhEC6CIgA0rWtaiYEKhEQAVRCpARCIF0ERADp2lY1EwKVCIgAKiFSAiGQLgIigHRtq5oJgUoERACVECmBEEgXARFAurZVzYRAJQIigEqIlEAIpIuACCBd26pmQqASARFAJURKIATSRUAEkK5tVTMhUInA/wLdkPeIgq/N1gAAAABJRU5ErkJggg==;" vertex="1" parent="1">
          <mxGeometry x="358" y="200" width="84" height="168" as="geometry" />
        </mxCell>
        <mxCell id="9HfGI17SHYBAd2q_ou8a-9" value="" style="shape=image;html=1;verticalAlign=top;verticalLabelPosition=bottom;labelBackgroundColor=#ffffff;imageAspect=0;aspect=fixed;image=https://cdn4.iconfinder.com/data/icons/wirecons-free-vector-icons/32/add-128.png" vertex="1" parent="1">
          <mxGeometry x="210" width="60" height="60" as="geometry" />
        </mxCell>
        <mxCell id="9HfGI17SHYBAd2q_ou8a-11" value="" style="shape=image;html=1;verticalAlign=top;verticalLabelPosition=bottom;labelBackgroundColor=#ffffff;imageAspect=0;aspect=fixed;image=https://cdn0.iconfinder.com/data/icons/typicons-2/24/minus-128.png" vertex="1" parent="1">
          <mxGeometry x="570" y="5" width="50" height="50" as="geometry" />
        </mxCell>
        <mxCell id="9HfGI17SHYBAd2q_ou8a-12" value="&lt;b&gt;&lt;font style=&quot;font-size: 16px&quot;&gt;Comunicação&lt;br&gt;&lt;br&gt;&lt;br&gt;Expressar&lt;br&gt;&lt;/font&gt;&lt;/b&gt;" style="text;html=1;strokeColor=none;fillColor=none;align=center;verticalAlign=middle;whiteSpace=wrap;rounded=0;" vertex="1" parent="1">
          <mxGeometry x="490" y="70" width="220" height="140" as="geometry" />
        </mxCell>
        <mxCell id="9HfGI17SHYBAd2q_ou8a-13" value="&lt;font style=&quot;font-size: 16px&quot;&gt;&lt;b&gt;Ânimo pra ajudar pessoas&lt;br&gt;&lt;br&gt;Paciência&lt;br&gt;&lt;/b&gt;&lt;/font&gt;" style="text;html=1;strokeColor=none;fillColor=none;align=center;verticalAlign=middle;whiteSpace=wrap;rounded=0;" vertex="1" parent="1">
          <mxGeometry x="170" y="60" width="150" height="170" as="geometry" />
        </mxCell>
        <mxCell id="9HfGI17SHYBAd2q_ou8a-14" value="&lt;font style=&quot;font-size: 16px&quot;&gt;&lt;b&gt;Programação&lt;br&gt;Front-end&lt;br&gt;&lt;br&gt;&lt;/b&gt;&lt;/font&gt;" style="text;html=1;strokeColor=none;fillColor=none;align=center;verticalAlign=middle;whiteSpace=wrap;rounded=0;" vertex="1" parent="1">
          <mxGeometry x="165" y="290" width="150" height="170" as="geometry" />
        </mxCell>
        <mxCell id="9HfGI17SHYBAd2q_ou8a-15" value="&lt;font style=&quot;font-size: 16px&quot;&gt;&lt;b&gt;Conhecimento de Hardware&lt;br&gt;&lt;br&gt;Empreendedorismo&lt;br&gt;&lt;br&gt;&lt;/b&gt;&lt;/font&gt;" style="text;html=1;strokeColor=none;fillColor=none;align=center;verticalAlign=middle;whiteSpace=wrap;rounded=0;" vertex="1" parent="1">
          <mxGeometry x="490" y="310" width="150" height="170" as="geometry" />
        </mxCell>
      </root>
    </mxGraphModel>
  </diagram>
</mxfile>
